<svg width="1417" height="1208" viewBox="0 0 1417 1208" fill="none" xmlns="http://www.w3.org/2000/svg">
<path d="M594 1100.5C594 1159.87 545.871 1208 486.5 1208C427.129 1208 379 1159.87 379 1100.5C379 1041.13 427.129 993 486.5 993C545.871 993 594 1041.13 594 1100.5Z" fill="black"/>
<path d="M1417 1089.5C1417 1148.87 1368.87 1197 1309.5 1197C1250.13 1197 1202 1148.87 1202 1089.5C1202 1030.13 1250.13 982 1309.5 982C1368.87 982 1417 1030.13 1417 1089.5Z" fill="black"/>
<path fill-rule="evenodd" clip-rule="evenodd" d="M511 0H476V35V1066V1101H511H1275H1310V1066V35V0H1275H511ZM546 1031V70H1007V321V540V612V1031H546ZM1077 996.874C1103.64 976.07 1132.86 948.991 1159.16 916.699C1204.15 861.456 1238.5 793.565 1240 717.665V106.249C1211.36 123.617 1181.51 143.103 1154.27 167.344C1109.21 207.446 1077 256.1 1077 321V540V612V996.874ZM1077 145.588C1086.77 134.659 1097.12 124.501 1107.73 115.056C1126.44 98.4053 1146.68 83.417 1166.62 70H1077V145.588ZM1145.53 1031H1240V925.275C1231.52 937.765 1222.6 949.651 1213.44 960.901C1191.79 987.481 1168.43 1010.98 1145.53 1031Z" fill="black"/>
<path d="M35 943C271.245 943 372.769 943 394 943" stroke="black" stroke-width="70" stroke-linecap="square"/>
<path d="M215 847C332.794 847 383.414 847 394 847" stroke="black" stroke-width="70" stroke-linecap="square"/>
<path d="M305 749C363.568 749 388.737 749 394 749" stroke="black" stroke-width="70" stroke-linecap="square"/>
<path d="M604 127H680V701H604V127Z" fill="black"/>
<rect x="740" y="127" width="76" height="574" fill="black"/>
<rect x="870" y="127" width="76" height="574" fill="black"/>
<path d="M604 585L604.124 509L945.567 510.573L945.443 586.573L604 585Z" fill="black"/>
<path d="M604 715L604.124 639L945.567 640.573L945.443 716.573L604 715Z" fill="black"/>
<rect width="75.9998" height="341.446" transform="matrix(0.0016298 -0.999999 0.999989 0.0046059 604.222 448.213)" fill="black"/>
<rect width="75.9998" height="341.446" transform="matrix(0.0016298 -0.999999 0.999989 0.0046059 604.434 318.215)" fill="black"/>
<rect width="75.9998" height="341.446" transform="matrix(0.0016298 -0.999999 0.999989 0.0046059 604.434 181)" fill="black"/>
<rect x="604" y="776" width="342" height="148" fill="black"/>
</svg>
