<svg width="1204" height="416" viewBox="0 0 1204 416" fill="none" xmlns="http://www.w3.org/2000/svg">
<path d="M72.8 194L17.2 50H34.8L86.4 186.8H80.4L131.8 50H148.4L92.8 194H72.8ZM212.708 194V50H237.908L289.908 188.8H282.308L333.908 50H359.508V194H343.308V58.6H345.508L295.308 194H275.708L225.508 59.8H227.708V194H212.708ZM513.997 194V50H539.197L591.197 188.8H583.597L635.197 50H660.797V194H644.597V58.6H646.797L596.597 194H576.997L526.797 59.8H528.997V194H513.997ZM725.247 194L780.847 50H795.247L741.047 194H725.247ZM839.647 194L785.447 50H800.847L856.447 194H839.647ZM752.847 135.8H828.047V150.2H752.847V135.8ZM916.848 194V50H970.048C980.315 50 989.048 51.6667 996.248 55C1003.45 58.3333 1008.92 63 1012.65 69C1016.52 74.8667 1018.45 81.8667 1018.45 90C1018.45 98.1333 1016.52 105.267 1012.65 111.4C1008.92 117.4 1003.45 122.133 996.248 125.6C989.048 128.933 980.315 130.6 970.048 130.6H928.848V116.2H969.448C980.115 116.2 988.182 113.867 993.648 109.2C999.248 104.533 1002.05 98.1333 1002.05 90C1002.05 82 999.315 75.7333 993.848 71.2C988.382 66.6667 980.248 64.4 969.448 64.4H933.248V194H916.848ZM1001.25 194L924.648 122.6H947.048L1026.05 194H1001.25ZM1120.27 194V64.4H1070.87V50H1186.07V64.4H1136.67V194H1120.27Z" fill="black"/>
<path d="M62.8 194L7.2 50H24.8L76.4 186.8H70.4L121.8 50H138.4L82.8 194H62.8ZM202.708 194V50H227.908L279.908 188.8H272.308L323.908 50H349.508V194H333.308V58.6H335.508L285.308 194H265.708L215.508 59.8H217.708V194H202.708ZM503.997 194V50H529.197L581.197 188.8H573.597L625.197 50H650.797V194H634.597V58.6H636.797L586.597 194H566.997L516.797 59.8H518.997V194H503.997ZM715.247 194L770.847 50H785.247L731.047 194H715.247ZM829.647 194L775.447 50H790.847L846.447 194H829.647ZM742.847 135.8H818.047V150.2H742.847V135.8ZM906.848 194V50H960.048C970.315 50 979.048 51.6667 986.248 55C993.448 58.3333 998.915 63 1002.65 69C1006.52 74.8667 1008.45 81.8667 1008.45 90C1008.45 98.1333 1006.52 105.267 1002.65 111.4C998.915 117.4 993.448 122.133 986.248 125.6C979.048 128.933 970.315 130.6 960.048 130.6H918.848V116.2H959.448C970.115 116.2 978.182 113.867 983.648 109.2C989.248 104.533 992.048 98.1333 992.048 90C992.048 82 989.315 75.7333 983.848 71.2C978.382 66.6667 970.248 64.4 959.448 64.4H923.248V194H906.848ZM991.248 194L914.648 122.6H937.048L1016.05 194H991.248ZM1110.27 194V64.4H1060.87V50H1176.07V64.4H1126.67V194H1110.27Z" fill="black"/>
<path d="M82.8 194L27.2 50H44.8L96.4 186.8H90.4L141.8 50H158.4L102.8 194H82.8ZM222.708 194V50H247.908L299.908 188.8H292.308L343.908 50H369.508V194H353.308V58.6H355.508L305.308 194H285.708L235.508 59.8H237.708V194H222.708ZM523.997 194V50H549.197L601.197 188.8H593.597L645.197 50H670.797V194H654.597V58.6H656.797L606.597 194H586.997L536.797 59.8H538.997V194H523.997ZM735.247 194L790.847 50H805.247L751.047 194H735.247ZM849.647 194L795.447 50H810.847L866.447 194H849.647ZM762.847 135.8H838.047V150.2H762.847V135.8ZM926.848 194V50H980.048C990.315 50 999.048 51.6667 1006.25 55C1013.45 58.3333 1018.92 63 1022.65 69C1026.52 74.8667 1028.45 81.8667 1028.45 90C1028.45 98.1333 1026.52 105.267 1022.65 111.4C1018.92 117.4 1013.45 122.133 1006.25 125.6C999.048 128.933 990.315 130.6 980.048 130.6H938.848V116.2H979.448C990.115 116.2 998.182 113.867 1003.65 109.2C1009.25 104.533 1012.05 98.1333 1012.05 90C1012.05 82 1009.32 75.7333 1003.85 71.2C998.382 66.6667 990.248 64.4 979.448 64.4H943.248V194H926.848ZM1011.25 194L934.648 122.6H957.048L1036.05 194H1011.25ZM1130.27 194V64.4H1080.87V50H1196.07V64.4H1146.67V194H1130.27Z" fill="black"/>
<path d="M177.7 317.2C177.7 315.333 176.667 313.633 174.6 312.1C172.533 310.5 169.367 308.6 165.1 306.4C161.633 304.6 158.833 303.033 156.7 301.7C154.567 300.367 152.733 298.833 151.2 297.1C149.733 295.3 149 293.367 149 291.3C149 288.9 150 286.333 152 283.6C154 280.867 156.467 278.567 159.4 276.7C162.333 274.833 165.067 273.9 167.6 273.9C170.667 273.9 174.2 274.3 178.2 275.1C182.267 275.833 185.2 276.667 187 277.6V293H183.2C181.067 288.867 178.6 285.667 175.8 283.4C173 281.067 170.133 279.9 167.2 279.9C165.133 279.9 163.467 280.467 162.2 281.6C160.933 282.667 160.3 284.033 160.3 285.7C160.3 287.767 161.367 289.633 163.5 291.3C165.7 292.9 169 294.8 173.4 297C176.8 298.733 179.533 300.233 181.6 301.5C183.667 302.767 185.4 304.267 186.8 306C188.267 307.667 189 309.533 189 311.6C189 314.067 187.933 316.667 185.8 319.4C183.733 322.067 181.167 324.333 178.1 326.2C175.1 328.067 172.333 329 169.8 329C166.533 329 162.633 328.633 158.1 327.9C153.633 327.1 150.433 326.233 148.5 325.3V309.9H152.3C154.633 314.033 157.4 317.267 160.6 319.6C163.8 321.867 167.033 323 170.3 323C172.5 323 174.267 322.433 175.6 321.3C177 320.167 177.7 318.8 177.7 317.2ZM273.259 328.1H254.259V294.4C254.259 290.733 253.693 288.167 252.559 286.7C251.426 285.233 249.393 284.5 246.459 284.5C244.259 284.5 242.059 284.9 239.859 285.7C237.726 286.5 235.193 288.033 232.259 290.3V320.6L241.259 324.1L239.259 328.1H211.359V325L220.259 318V289.7L211.359 284.5V281.4L228.459 273L231.759 286L245.959 274.7C247.359 274.167 249.193 273.9 251.459 273.9C255.993 273.9 259.593 275.3 262.259 278.1C264.926 280.833 266.259 284.567 266.259 289.3V320.5L275.259 324.1L273.259 328.1ZM345.334 328H326.334V319.3L315.034 328.2C313.701 328.733 312.034 329 310.034 329C304.301 329 300.134 327.567 297.534 324.7C295.001 321.833 293.734 318.4 293.734 314.4C293.734 312 294.601 309.633 296.334 307.3C298.068 304.967 300.534 302.767 303.734 300.7H326.334V294.3C326.334 289.967 325.168 286.9 322.834 285.1C320.568 283.3 317.434 282.4 313.434 282.4C309.301 282.4 304.234 284.9 298.234 289.9L295.234 286.1L309.634 274.7C312.301 274.167 315.501 273.9 319.234 273.9C325.301 273.9 330.001 275.4 333.334 278.4C336.668 281.333 338.334 285.633 338.334 291.3V320.5L347.334 324L345.334 328ZM313.234 320.5C317.301 320.5 321.668 318.633 326.334 314.9V304.8H308.634C307.768 305.867 307.134 306.933 306.734 308C306.401 309.067 306.234 310.233 306.234 311.5C306.234 313.967 306.868 316.1 308.134 317.9C309.401 319.633 311.101 320.5 313.234 320.5ZM394.944 273.9C397.677 273.9 400.844 274.3 404.444 275.1C408.11 275.833 410.744 276.667 412.344 277.6V293H408.544C405.944 289.667 402.944 287.067 399.544 285.2C396.21 283.267 392.744 282.3 389.144 282.3C386.077 282.3 383.744 283.667 382.144 286.4C380.61 289.133 379.844 293.133 379.844 298.4C379.844 304.667 381.21 309.933 383.944 314.2C386.677 318.4 390.577 320.5 395.644 320.5C399.444 320.5 404.844 317.767 411.844 312.3L414.844 316.1L399.444 328.2C396.777 328.733 393.577 329 389.844 329C385.444 329 381.477 327.867 377.944 325.6C374.477 323.267 371.744 320.133 369.744 316.2C367.81 312.267 366.844 307.933 366.844 303.2C366.844 298.067 368.277 293.233 371.144 288.7C374.077 284.167 377.744 280.567 382.144 277.9C386.544 275.233 390.81 273.9 394.944 273.9ZM464.572 324L462.572 328H434.672V324.9L443.572 317.9V256.4L434.672 250.2V247.1L451.772 240.7H455.572V320.5L464.572 324ZM496.572 328H479.672L460.872 301.6L479.572 285.9L469.972 278.9L471.972 274.9H495.872V278L472.672 297.5L489.572 320.5L498.572 324L496.572 328ZM645.847 320.6C649.647 320.6 655.047 317.867 662.047 312.4L665.047 316.2L649.647 328.3C646.98 328.833 643.78 329.1 640.047 329.1C636.247 329.1 632.814 328.3 629.747 326.7C626.747 325.1 624.38 322.967 622.647 320.3C620.914 317.567 620.047 314.567 620.047 311.3C620.047 309.1 620.414 306.9 621.147 304.7L591.447 328.2C588.447 328.733 584.68 329 580.147 329C575.347 329 571.047 327.8 567.247 325.4C563.447 322.933 560.48 319.567 558.347 315.3C556.214 311.033 555.147 306.333 555.147 301.2C555.147 295.667 556.814 290.5 560.147 285.7C563.48 280.9 567.647 277.067 572.647 274.2C577.714 271.333 582.58 269.9 587.247 269.9C590.447 269.9 593.314 271.067 595.847 273.4C598.38 275.733 600.047 278.267 600.847 281C603.714 277.733 606.947 275.067 610.547 273C614.214 270.933 617.68 269.9 620.947 269.9C623.547 269.9 625.847 270.233 627.847 270.9C629.847 271.567 632.18 272.6 634.847 274C637.714 275.4 640.147 276.467 642.147 277.2C644.147 277.867 646.514 278.2 649.247 278.2C650.847 278.2 652.48 277.833 654.147 277.1C655.88 276.3 657.314 275.233 658.447 273.9C659.647 272.567 660.247 271.067 660.247 269.4C660.247 266.933 658.98 264.567 656.447 262.3C653.914 260.033 650.38 258 645.847 256.2V253.1L657.447 248.8C659.514 250.867 661.647 253.767 663.847 257.5C666.114 261.233 667.247 264.433 667.247 267.1C667.247 270.367 665.914 273.767 663.247 277.3C660.58 280.767 657.414 283.7 653.747 286.1C650.147 288.433 647.18 289.6 644.847 289.6C642.914 289.6 641.114 289.5 639.447 289.3C637.18 290.9 635.514 293.067 634.447 295.8C633.447 298.467 632.947 302 632.947 306.4C632.947 310.533 634.047 313.933 636.247 316.6C638.447 319.2 641.614 320.5 645.747 320.5L645.847 320.6ZM585.947 320.6C588.414 320.6 591.114 320 594.047 318.8C596.98 317.533 600.614 315.167 604.947 311.7L634.747 288.3C632.614 287.7 629.647 286.567 625.847 284.9C623.18 283.767 620.98 282.933 619.247 282.4C617.514 281.8 615.647 281.5 613.647 281.5C611.447 281.5 609.347 281.9 607.347 282.7C605.347 283.433 603.18 284.833 600.847 286.9C600.18 289.767 598.68 292.5 596.347 295.1C594.08 297.633 591.414 299.967 588.347 302.1C585.347 304.233 581.18 306.967 575.847 310.3L573.747 306.3C579.147 302.967 582.814 299.767 584.747 296.7C586.68 293.567 587.647 290.3 587.647 286.9C587.647 284.567 586.914 282.567 585.447 280.9C583.98 279.233 582.314 278.4 580.447 278.4C576.447 278.4 573.38 279.933 571.247 283C569.18 286.067 568.147 290.567 568.147 296.5C568.147 303.367 569.68 309.1 572.747 313.7C575.814 318.3 580.214 320.6 585.947 320.6ZM787.365 328H768.365V320.8L759.065 328.2C756.932 328.733 754.365 329 751.365 329C746.965 329 742.998 327.867 739.465 325.6C735.998 323.267 733.265 320.133 731.265 316.2C729.332 312.267 728.365 307.933 728.365 303.2C728.365 298.067 729.932 293.267 733.065 288.8C736.198 284.267 740.098 280.667 744.765 278C749.498 275.267 754.065 273.9 758.465 273.9C762.132 273.9 765.465 274.933 768.465 277V256.4L759.565 250.2V247.1L776.665 240.7H780.465V320.5L789.365 324L787.365 328ZM756.465 320.5C758.465 320.5 760.365 320.233 762.165 319.7C764.032 319.1 766.098 318 768.365 316.4V293.6C767.965 290.267 766.398 287.567 763.665 285.5C760.998 283.367 757.332 282.3 752.665 282.3C745.132 282.3 741.365 287.667 741.365 298.4C741.365 304.667 742.665 309.933 745.265 314.2C747.865 318.4 751.598 320.5 756.465 320.5ZM843.573 274C845.773 274 847.706 274.6 849.373 275.8C851.039 277 852.339 278.667 853.273 280.8L846.673 289.1H842.873C842.606 287.433 842.106 286.267 841.373 285.6C840.706 284.867 839.773 284.5 838.573 284.5C837.106 284.5 835.539 284.9 833.873 285.7C832.273 286.433 830.439 287.867 828.373 290V319.8L842.373 324.1L840.373 328.1H807.473V325L816.373 318V289.7L807.473 284.5V281.4L824.573 273L827.673 285.3L838.073 274.7C839.473 274.167 841.306 273.9 843.573 273.9V274ZM897.228 328H869.328V324.9L878.228 317.9V288.7L869.328 282.5V279.4L886.428 273H890.228V320.5L899.228 324L897.228 328ZM883.828 243C885.828 243 887.461 243.733 888.728 245.2C890.061 246.667 890.728 248.5 890.728 250.7C890.728 252.233 890.261 253.7 889.328 255.1C888.395 256.433 887.228 257.5 885.828 258.3C884.428 259.1 883.061 259.5 881.728 259.5C879.728 259.5 878.061 258.767 876.728 257.3C875.461 255.833 874.828 254 874.828 251.8C874.828 250.267 875.295 248.833 876.228 247.5C877.161 246.1 878.328 245 879.728 244.2C881.128 243.4 882.495 243 883.828 243ZM980.095 328.1H961.095V294.4C961.095 290.733 960.529 288.167 959.395 286.7C958.262 285.233 956.229 284.5 953.295 284.5C951.095 284.5 948.895 284.9 946.695 285.7C944.562 286.5 942.029 288.033 939.095 290.3V320.6L948.095 324.1L946.095 328.1H918.195V325L927.095 318V289.7L918.195 284.5V281.4L935.295 273L938.595 286L952.795 274.7C954.195 274.167 956.029 273.9 958.295 273.9C962.829 273.9 966.429 275.3 969.095 278.1C971.762 280.833 973.095 284.567 973.095 289.3V320.5L982.095 324.1L980.095 328.1ZM1027.97 324L1025.97 328H998.07V324.9L1006.97 317.9V256.4L998.07 250.2V247.1L1015.17 240.7H1018.97V320.5L1027.97 324ZM1059.97 328H1043.07L1024.27 301.6L1042.97 285.9L1033.37 278.9L1035.37 274.9H1059.27V278L1036.07 297.5L1052.97 320.5L1061.97 324L1059.97 328Z" fill="black"/>
</svg>
