<svg width="1417" height="1208" viewBox="0 0 1417 1208" fill="none" xmlns="http://www.w3.org/2000/svg">
<path d="M583 1100.5C583 1159.87 534.871 1208 475.5 1208C416.129 1208 368 1159.87 368 1100.5C368 1041.13 416.129 993 475.5 993C534.871 993 583 1041.13 583 1100.5Z" fill="black"/>
<path d="M1417 1095.5C1417 1154.87 1368.87 1203 1309.5 1203C1250.13 1203 1202 1154.87 1202 1095.5C1202 1036.13 1250.13 988 1309.5 988C1368.87 988 1417 1036.13 1417 1095.5Z" fill="black"/>
<path fill-rule="evenodd" clip-rule="evenodd" d="M511 0H476V35V1066V1101H511H1275H1310V1066V35V0H1275H511ZM546 1031V70H1007V321V540V612V1031H546ZM1077 996.874C1103.64 976.07 1132.86 948.991 1159.16 916.699C1204.15 861.456 1238.5 793.565 1240 717.665V106.249C1211.36 123.617 1181.51 143.103 1154.27 167.344C1109.21 207.446 1077 256.1 1077 321V540V612V996.874ZM1077 145.588C1086.77 134.659 1097.12 124.501 1107.73 115.056C1126.44 98.4053 1146.68 83.417 1166.62 70H1077V145.588ZM1145.53 1031H1240V925.275C1231.52 937.765 1222.6 949.651 1213.44 960.901C1191.79 987.481 1168.43 1010.98 1145.53 1031Z" fill="black"/>
<path d="M35 943C271.245 943 372.769 943 394 943" stroke="black" stroke-width="70" stroke-linecap="square"/>
<path d="M215 847C332.794 847 383.414 847 394 847" stroke="black" stroke-width="70" stroke-linecap="square"/>
<path d="M305 749C363.568 749 388.737 749 394 749" stroke="black" stroke-width="70" stroke-linecap="square"/>
<path d="M604 159H680V733H604V159Z" fill="black"/>
<rect x="737" y="159" width="76" height="574" fill="black"/>
<rect x="870" y="159" width="76" height="574" fill="black"/>
<path d="M604 617L604.124 541L945.567 542.573L945.443 618.573L604 617Z" fill="black"/>
<path d="M604 747L604.124 671L945.567 672.573L945.443 748.573L604 747Z" fill="black"/>
<rect width="75.9998" height="341.446" transform="matrix(0.0016298 -0.999999 0.999989 0.0046059 604.222 480.213)" fill="black"/>
<rect width="75.9998" height="341.446" transform="matrix(0.0016298 -0.999999 0.999989 0.0046059 604.434 350.215)" fill="black"/>
<rect width="75.9998" height="341.446" transform="matrix(0.0016298 -0.999999 0.999989 0.0046059 604.434 213)" fill="black"/>
<rect x="604" y="795" width="342" height="170" fill="black"/>
<path d="M1044 29V219L1266 29H1044Z" fill="black" stroke="black"/>
<path d="M1276 813C1198.67 895 1044 1061.4 1044 1071H1276V813Z" fill="black" stroke="black"/>
</svg>
