<svg width="1107" height="334" viewBox="0 0 1107 334" fill="none" xmlns="http://www.w3.org/2000/svg">
<path d="M118.85 305.7C111.783 305.7 106.383 304.333 102.65 301.6C98.9167 298.867 96.65 294.633 95.85 288.9L102.05 288.6C102.583 293.067 104.217 296.4 106.95 298.6C109.683 300.733 113.617 301.8 118.75 301.8C123.683 301.8 127.483 300.933 130.15 299.2C132.817 297.4 134.15 294.867 134.15 291.6C134.15 289.333 133.483 287.533 132.15 286.2C130.817 284.8 129.05 283.733 126.85 283C124.65 282.2 122.217 281.533 119.55 281C116.95 280.4 114.317 279.8 111.65 279.2C109.05 278.533 106.65 277.667 104.45 276.6C102.317 275.467 100.55 274 99.15 272.2C97.8167 270.333 97.15 267.9 97.15 264.9C97.15 260.167 98.9833 256.567 102.65 254.1C106.317 251.567 111.617 250.3 118.55 250.3C122.95 250.3 126.683 250.9 129.75 252.1C132.883 253.233 135.317 254.967 137.05 257.3C138.85 259.567 139.95 262.4 140.35 265.8L134.15 266.1C133.75 262.167 132.25 259.2 129.65 257.2C127.117 255.2 123.483 254.2 118.75 254.2C113.883 254.2 110.15 255.1 107.55 256.9C104.95 258.7 103.65 261.3 103.65 264.7C103.65 267.1 104.317 269.033 105.65 270.5C106.983 271.9 108.717 273 110.85 273.8C113.05 274.6 115.45 275.3 118.05 275.9C120.717 276.433 123.35 277.033 125.95 277.7C128.617 278.3 131.05 279.133 133.25 280.2C135.45 281.267 137.217 282.7 138.55 284.5C139.883 286.233 140.55 288.567 140.55 291.5C140.55 296.1 138.683 299.633 134.95 302.1C131.217 304.5 125.85 305.7 118.85 305.7ZM208.191 274.2C208.191 267.667 206.857 262.867 204.191 259.8C201.524 256.667 197.391 255.1 191.791 255.1C185.591 255.1 180.724 257.133 177.191 261.2C173.724 265.2 171.991 270.9 171.991 278.3L169.591 283.7V278.7C169.591 269.633 171.724 262.633 175.991 257.7C180.257 252.767 186.291 250.3 194.091 250.3C200.957 250.3 206.057 252.2 209.391 256C212.724 259.8 214.391 265.633 214.391 273.5V305H208.191V274.2ZM165.791 251H170.491L171.991 270.3V305H165.791V251ZM278.495 287.9V269.2C278.495 264.4 277.061 260.833 274.195 258.5C271.395 256.1 267.095 254.9 261.295 254.9C257.961 254.9 254.561 255.4 251.095 256.4C247.628 257.333 244.461 258.667 241.595 260.4L240.695 256C242.628 254.867 244.828 253.867 247.295 253C249.761 252.133 252.328 251.467 254.995 251C257.728 250.533 260.328 250.3 262.795 250.3C270.128 250.3 275.628 251.9 279.295 255.1C282.961 258.233 284.795 262.933 284.795 269.2V305H280.095L278.495 287.9ZM258.695 305.7C252.695 305.7 247.961 304.3 244.495 301.5C241.028 298.633 239.295 294.7 239.295 289.7V287.6C239.295 282.6 241.061 278.7 244.595 275.9C248.128 273.033 253.028 271.6 259.295 271.6C265.961 271.6 271.228 272.967 275.095 275.7C278.961 278.367 280.895 282.167 280.895 287.1V289.3C280.895 294.367 278.928 298.367 274.995 301.3C271.061 304.233 265.628 305.7 258.695 305.7ZM260.395 302.2C265.995 302.2 270.361 301.033 273.495 298.7C276.695 296.3 278.295 293.033 278.295 288.9V287.3C278.295 283.5 276.761 280.533 273.695 278.4C270.628 276.2 266.395 275.1 260.995 275.1C255.995 275.1 252.061 276.2 249.195 278.4C246.395 280.533 244.995 283.667 244.995 287.8V289.4C244.995 293.4 246.361 296.533 249.095 298.8C251.828 301.067 255.595 302.2 260.395 302.2ZM335.144 305.7C330.01 305.7 325.577 304.733 321.844 302.8C318.11 300.867 315.244 298.1 313.244 294.5C311.244 290.9 310.244 286.633 310.244 281.7V274.3C310.244 269.367 311.244 265.133 313.244 261.6C315.31 258 318.177 255.233 321.844 253.3C325.577 251.3 330.01 250.3 335.144 250.3C342.344 250.3 348.144 252.033 352.544 255.5C356.944 258.9 359.577 263.6 360.444 269.6L354.544 270C353.677 265.2 351.61 261.467 348.344 258.8C345.077 256.133 340.744 254.8 335.344 254.8C329.544 254.8 324.944 256.567 321.544 260.1C318.144 263.567 316.444 268.3 316.444 274.3V281.7C316.444 287.7 318.11 292.467 321.444 296C324.844 299.467 329.477 301.2 335.344 301.2C340.677 301.2 344.977 299.867 348.244 297.2C351.577 294.533 353.677 290.8 354.544 286L360.444 286.4C359.577 292.4 356.91 297.133 352.444 300.6C348.044 304 342.277 305.7 335.144 305.7ZM385.855 287.6L418.355 251H425.755L389.955 291.5L385.855 287.6ZM384.755 231H390.955V305H384.755V231ZM400.355 276.4L404.855 273.1L426.255 305H419.655L400.355 276.4ZM465.823 305.7C458.756 305.7 453.356 304.333 449.623 301.6C445.889 298.867 443.623 294.633 442.823 288.9L449.023 288.6C449.556 293.067 451.189 296.4 453.923 298.6C456.656 300.733 460.589 301.8 465.723 301.8C470.656 301.8 474.456 300.933 477.123 299.2C479.789 297.4 481.123 294.867 481.123 291.6C481.123 289.333 480.456 287.533 479.123 286.2C477.789 284.8 476.023 283.733 473.823 283C471.623 282.2 469.189 281.533 466.523 281C463.923 280.4 461.289 279.8 458.623 279.2C456.023 278.533 453.623 277.667 451.423 276.6C449.289 275.467 447.523 274 446.123 272.2C444.789 270.333 444.123 267.9 444.123 264.9C444.123 260.167 445.956 256.567 449.623 254.1C453.289 251.567 458.589 250.3 465.523 250.3C469.923 250.3 473.656 250.9 476.723 252.1C479.856 253.233 482.289 254.967 484.023 257.3C485.823 259.567 486.923 262.4 487.323 265.8L481.123 266.1C480.723 262.167 479.223 259.2 476.623 257.2C474.089 255.2 470.456 254.2 465.723 254.2C460.856 254.2 457.123 255.1 454.523 256.9C451.923 258.7 450.623 261.3 450.623 264.7C450.623 267.1 451.289 269.033 452.623 270.5C453.956 271.9 455.689 273 457.823 273.8C460.023 274.6 462.423 275.3 465.023 275.9C467.689 276.433 470.323 277.033 472.923 277.7C475.589 278.3 478.023 279.133 480.223 280.2C482.423 281.267 484.189 282.7 485.523 284.5C486.856 286.233 487.523 288.567 487.523 291.5C487.523 296.1 485.656 299.633 481.923 302.1C478.189 304.5 472.823 305.7 465.823 305.7ZM573.719 305.7C565.452 305.7 559.085 304.1 554.619 300.9C550.152 297.7 547.919 293.133 547.919 287.2V285.7C547.919 280.767 549.585 276.767 552.919 273.7C556.319 270.567 561.185 268.6 567.519 267.8L567.619 269.2C561.619 268.4 556.952 266.533 553.619 263.6C550.352 260.6 548.719 256.8 548.719 252.2V251.3C548.719 245.833 550.852 241.633 555.119 238.7C559.385 235.767 565.419 234.3 573.219 234.3C580.352 234.3 586.019 235.967 590.219 239.3C594.485 242.633 597.252 247.533 598.519 254L592.619 254.6C591.552 249.333 589.385 245.367 586.119 242.7C582.919 239.967 578.619 238.6 573.219 238.6C567.285 238.6 562.719 239.767 559.519 242.1C556.385 244.367 554.819 247.633 554.819 251.9V252.7C554.819 257.167 556.585 260.633 560.119 263.1C563.719 265.567 568.752 266.8 575.219 266.8H612.619V270.7H575.219C568.285 270.7 563.019 271.933 559.419 274.4C555.885 276.867 554.119 280.533 554.119 285.4V286.8C554.119 291.467 555.785 295.067 559.119 297.6C562.519 300.067 567.385 301.3 573.719 301.3C577.652 301.3 581.152 300.633 584.219 299.3C587.285 297.9 589.685 295.8 591.419 293C593.152 290.2 594.019 286.733 594.019 282.6H599.519C599.519 287.6 598.419 291.833 596.219 295.3C594.019 298.7 590.985 301.3 587.119 303.1C583.252 304.833 578.785 305.7 573.719 305.7ZM600.119 268.8V316H594.019V268.8H600.119ZM688.923 305.7C681.99 305.7 676.59 303.6 672.723 299.4C668.857 295.2 666.923 289.3 666.923 281.7V274.3C666.923 266.7 668.857 260.8 672.723 256.6C676.59 252.4 682.023 250.3 689.023 250.3C694.29 250.3 698.857 251.333 702.723 253.4C706.657 255.467 709.69 258.433 711.823 262.3C714.023 266.1 715.123 270.7 715.123 276.1V279.3C715.123 284.7 714.023 289.4 711.823 293.4C709.69 297.333 706.657 300.367 702.723 302.5C698.79 304.633 694.19 305.7 688.923 305.7ZM690.423 301.1C697.157 301.1 702.457 299.133 706.323 295.2C710.257 291.2 712.223 285.767 712.223 278.9V276.6C712.223 269.867 710.257 264.567 706.323 260.7C702.457 256.833 697.157 254.9 690.423 254.9C684.957 254.9 680.69 256.633 677.623 260.1C674.623 263.567 673.123 268.433 673.123 274.7V281.4C673.123 287.6 674.657 292.433 677.723 295.9C680.79 299.367 685.023 301.1 690.423 301.1ZM712.223 285.6V231H718.423V305H714.623L712.223 285.6ZM747.295 251H751.995L753.495 271.6V305H747.295V251ZM751.895 276.2C751.895 267.667 753.528 261.233 756.795 256.9C760.061 252.5 764.861 250.3 771.195 250.3C772.328 250.3 773.461 250.367 774.595 250.5C775.795 250.633 776.928 250.833 777.995 251.1L777.595 256.4C775.595 255.867 773.328 255.6 770.795 255.6C765.128 255.6 760.828 257.467 757.895 261.2C754.961 264.933 753.495 270.467 753.495 277.8L751.895 276.2ZM802.85 251V305H796.65V251H802.85ZM803.15 232.6V243.8H796.35V232.6H803.15ZM874.148 274.2C874.148 267.667 872.814 262.867 870.148 259.8C867.481 256.667 863.348 255.1 857.748 255.1C851.548 255.1 846.681 257.133 843.148 261.2C839.681 265.2 837.948 270.9 837.948 278.3L835.548 283.7V278.7C835.548 269.633 837.681 262.633 841.948 257.7C846.214 252.767 852.248 250.3 860.048 250.3C866.914 250.3 872.014 252.2 875.348 256C878.681 259.8 880.348 265.633 880.348 273.5V305H874.148V274.2ZM831.748 251H836.448L837.948 270.3V305H831.748V251ZM909.254 287.6L941.754 251H949.154L913.354 291.5L909.254 287.6ZM908.154 231H914.354V305H908.154V231ZM923.754 276.4L928.254 273.1L949.654 305H943.054L923.754 276.4ZM989.221 305.7C982.154 305.7 976.754 304.333 973.021 301.6C969.288 298.867 967.021 294.633 966.221 288.9L972.421 288.6C972.954 293.067 974.588 296.4 977.321 298.6C980.054 300.733 983.988 301.8 989.121 301.8C994.054 301.8 997.854 300.933 1000.52 299.2C1003.19 297.4 1004.52 294.867 1004.52 291.6C1004.52 289.333 1003.85 287.533 1002.52 286.2C1001.19 284.8 999.421 283.733 997.221 283C995.021 282.2 992.588 281.533 989.921 281C987.321 280.4 984.688 279.8 982.021 279.2C979.421 278.533 977.021 277.667 974.821 276.6C972.688 275.467 970.921 274 969.521 272.2C968.188 270.333 967.521 267.9 967.521 264.9C967.521 260.167 969.354 256.567 973.021 254.1C976.688 251.567 981.988 250.3 988.921 250.3C993.321 250.3 997.054 250.9 1000.12 252.1C1003.25 253.233 1005.69 254.967 1007.42 257.3C1009.22 259.567 1010.32 262.4 1010.72 265.8L1004.52 266.1C1004.12 262.167 1002.62 259.2 1000.02 257.2C997.488 255.2 993.854 254.2 989.121 254.2C984.254 254.2 980.521 255.1 977.921 256.9C975.321 258.7 974.021 261.3 974.021 264.7C974.021 267.1 974.688 269.033 976.021 270.5C977.354 271.9 979.088 273 981.221 273.8C983.421 274.6 985.821 275.3 988.421 275.9C991.088 276.433 993.721 277.033 996.321 277.7C998.988 278.3 1001.42 279.133 1003.62 280.2C1005.82 281.267 1007.59 282.7 1008.92 284.5C1010.25 286.233 1010.92 288.567 1010.92 291.5C1010.92 296.1 1009.05 299.633 1005.32 302.1C1001.59 304.5 996.221 305.7 989.221 305.7Z" fill="black"/>
<path d="M55.0092 184L3.76922 39.52H53.3292L82.3092 136.12H83.1492L112.339 39.52H159.799L108.769 184H55.0092ZM303.296 184V131.92C303.296 125.48 303.506 118.9 303.926 112.18C304.486 105.32 305.046 99.58 305.606 94.96C306.166 90.34 306.516 87.4 306.656 86.14H305.816L279.146 184H242.816L215.936 86.35H215.096C215.236 87.61 215.586 90.55 216.146 95.17C216.846 99.65 217.476 105.32 218.036 112.18C218.596 118.9 218.876 125.48 218.876 131.92V184H176.246V39.52H241.766L263.606 122.89H264.446L286.076 39.52H349.286V184H303.296ZM571.539 184V131.92C571.539 125.48 571.749 118.9 572.169 112.18C572.729 105.32 573.289 99.58 573.849 94.96C574.409 90.34 574.759 87.4 574.899 86.14H574.059L547.389 184H511.059L484.179 86.35H483.339C483.479 87.61 483.829 90.55 484.389 95.17C485.089 99.65 485.719 105.32 486.279 112.18C486.839 118.9 487.119 125.48 487.119 131.92V184H444.489V39.52H510.009L531.849 122.89H532.689L554.319 39.52H617.529V184H571.539ZM742.549 184L736.459 163.63H685.849L679.759 184H632.299L685.009 39.52H738.979L791.689 184H742.549ZM695.509 131.29H726.799L711.679 79.84H710.839L695.509 131.29ZM946.316 83.83C946.316 92.65 943.936 100.63 939.176 107.77C934.416 114.91 927.486 120.16 918.386 123.52L950.516 184H898.436L872.816 131.29H855.596V184H809.186V39.52H897.596C907.956 39.52 916.776 41.55 924.056 45.61C931.476 49.53 937.006 54.92 940.646 61.78C944.426 68.5 946.316 75.85 946.316 83.83ZM899.066 85.72C899.066 81.94 897.806 78.79 895.286 76.27C892.766 73.75 889.686 72.49 886.046 72.49H855.596V99.16H886.046C889.686 99.16 892.766 97.9 895.286 95.38C897.806 92.72 899.066 89.5 899.066 85.72ZM1053.95 76.48V184H1007.54V76.48H960.078V39.52H1101.2V76.48H1053.95Z" fill="black"/>
</svg>
